PathFileType	4	(X/Y/Z)	25_coords_data.trc
DataRate	CameraRate	NumFrames	NumMarkers	Units	OrigDataRate	OrigDataStartFrame	OrigNumFrames
30.0	30.0	5	21	m	30.0	30	59
Frame#	Time	THUMB_TIP	THUMB_IP	THUMB_MCP	THUMB_CMC	INDEX_TIP	INDEX_DIP	INDEX_PIP	INDEX_MCP	MIDDLE_TIP	MIDDLE_DIP	MIDDLE_PIP	MIDDLE_MCP	RING_TIP	RING_DIP	RING_PIP	RING_MCP	PINKY_TIP	PINKY_DIP	PINKY_PIP	PINKY_MCP	WRIST
X1	Y1	Z1	X2	Y2	Z2	X3	Y3	Z3	X4	Y4	Z4	X5	Y5	Z5	X6	Y6	Z6	X7	Y7	Z7	X8	Y8	Z8	X9	Y9	Z9	X10	Y10	Z10	X11	Y11	Z11	X12	Y12	Z12	X13	Y13	Z13	X14	Y14	Z14	X15	Y15	Z15	X16	Y16	Z16	X17	Y17	Z17	X18	Y18	Z18	X19	Y19	Z19	X20	Y20	Z20	X21	Y21	Z21
29	0.9666666666666667	-0.014180899620056153	-0.11052400207519532	0.95535400390625	-0.03450709915161133	-0.09239469909667969	0.9539929809570312	-0.05802899932861328	-0.07149539947509766	0.9543980102539062	-0.0673511962890625	-0.040310501098632816	0.9605880126953125	0.012053999900817871	-0.12085399627685547	0.88322998046875	-0.004128419876098633	-0.10466200256347656	0.8861229858398437	-0.020523500442504884	-0.08763770294189453	0.8876229858398438	-0.04546360015869141	-0.05753239822387695	0.9031489868164062	-0.00796914005279541	-0.07930850219726562	0.950510986328125	0.000895989000797271	-0.07920359802246094	0.9302940063476562	0.0007252690196037291	-0.06942780303955078	0.903552978515625	-0.032427501678466794	-0.037764198303222654	0.9027620239257812	-0.0024407000541687013	-0.06547370147705078	0.952114013671875	0.007925469875335694	-0.06205799865722656	0.9331489868164062	0.009566630363464355	-0.05001300048828125	0.9090869750976562	-0.02119070053100586	-0.022247900009155275	0.9118519897460937	0.04879309844970703	-0.043322498321533204	0.9031129760742187	0.03174309921264649	-0.03430410003662109	0.910468994140625	0.01502359962463379	-0.026666400909423828	0.9167009887695312	-0.011636899948120118	-0.013922900199890136	0.9267249755859375	-0.08075099945068359	-8.216480165719902e-05	0.969375
30	1.0	-0.012608400344848633	-0.11055999755859375	0.9450980224609375	-0.03231100082397461	-0.09091889953613282	0.9478159790039062	-0.055230201721191405	-0.06951329803466796	0.9526279907226562	-0.06503990173339844	-0.03822719955444336	0.959906982421875	0.01761160087585449	-0.11040499877929688	0.8825029907226563	-0.000169496998190879	-0.0959447021484375	0.8840670166015625	-0.018437400817871093	-0.08066079711914062	0.8846370239257813	-0.0455458984375	-0.05369380187988281	0.9010490112304688	0.00837714958190918	-0.07790969848632813	0.9399010009765625	0.010037199974060058	-0.0733832015991211	0.9181890258789063	0.0013202999830245969	-0.05991059875488281	0.8940360107421875	-0.03478910064697266	-0.032716899871826174	0.9002449951171875	0.014303299903869629	-0.06296680068969726	0.94202001953125	0.016347000122070313	-0.05506779861450195	0.9221790161132812	0.008425600051879882	-0.03980379867553711	0.9000999755859375	-0.024627500534057618	-0.016235599517822264	0.9081719970703125	0.045929698944091796	-0.028704700469970704	0.8919959716796875	0.02881329917907715	-0.021690500259399413	0.900833984375	0.012065799713134765	-0.015864500045776365	0.9085579833984375	-0.014782999992370606	-0.005664470195770263	0.9216589965820312	-0.08058899688720703	-0.000352954000234603	0.969583984375
31	1.0333333333333334	-0.009732000350952149	-0.10805599975585937	0.9356950073242187	-0.028287200927734374	-0.08780599975585937	0.94227197265625	-0.05080780029296875	-0.06701570129394531	0.9506939697265625	-0.062187999725341794	-0.035787200927734374	0.9596329956054688	0.024213499069213867	-0.0986427993774414	0.8814349975585938	0.00464877986907959	-0.08652369689941407	0.8824450073242187	-0.015570400238037109	-0.07353730010986329	0.8829940185546875	-0.04520220184326172	-0.04991370010375976	0.900406005859375	0.023872800827026367	-0.07153759765625	0.9268109741210937	0.0176564998626709	-0.06411090087890625	0.9065280151367188	0.0011291699409484862	-0.05005540084838867	0.8871900024414062	-0.0367588005065918	-0.02783720016479492	0.8988569946289062	0.033037300109863284	-0.0562843017578125	0.9252930297851563	0.024373300552368166	-0.04507260131835938	0.9085980224609375	0.006662990093231201	-0.029400800704956053	0.8932069702148437	-0.0279906005859375	-0.01055459976196289	0.9061539916992187	0.041959098815917965	-0.014266500473022461	0.8840260009765625	0.024721200942993165	-0.009295109748840333	0.8942490234375	0.008034000396728516	-0.005299220085144043	0.9031309814453125	-0.01863669967651367	0.0017108399868011471	0.91814697265625	-0.08111479949951172	-0.00058196997642517	0.9699609985351563
32	1.0666666666666667	-0.0035986800193786622	-0.1022959976196289	0.9291539916992188	-0.022500299453735353	-0.0829635009765625	0.938291015625	-0.04491170120239258	-0.06342419815063477	0.9497470092773438	-0.05851369857788086	-0.03321009826660156	0.9602639770507813	0.031674800872802736	-0.08534410095214844	0.8797979736328125	0.010582599639892578	-0.07589959716796875	0.880948974609375	-0.01124149990081787	-0.06569339752197266	0.8821160278320312	-0.04374710083007813	-0.04628300094604492	0.900572998046875	0.03785129928588867	-0.06011029815673828	0.9104199829101562	0.02376849937438965	-0.051962898254394534	0.8940139770507812	0.0002829529941082	-0.03973089981079102	0.8809240112304687	-0.03845880126953125	-0.023232599258422852	0.8983460083007813	0.04582899856567383	-0.04196929931640625	0.9053920288085937	0.028627300262451173	-0.03152790069580078	0.895551025390625	0.0045073599815368655	-0.018948400497436523	0.8877969970703125	-0.03138190078735351	-0.00511290979385376	0.90489697265625	0.037010501861572266	-0.0008853909969329831	0.8783209838867188	0.019872400283813478	0.002141649961471557	0.8897369995117187	0.0034893100261688234	0.004345950126647949	0.8997210083007813	-0.022848100662231446	0.008659649848937988	0.9158309936523438	-0.08173100280761719	-0.000855592012405395	0.970833984375
33	1.1	0.004759429931640625	-0.09407710266113281	0.92597900390625	-0.014918100357055665	-0.07619580078125	0.9366420288085937	-0.038645198822021484	-0.05876979827880859	0.950010009765625	-0.055382099151611325	-0.029552400588989256	0.9615089721679687	0.03804439926147461	-0.07094609832763672	0.875791015625	0.015725799560546875	-0.06440869903564453	0.8785430297851563	-0.007225329875946045	-0.0573567008972168	0.8814619750976562	-0.04140230178833008	-0.04268249893188476	0.9011270141601563	0.04705270004272461	-0.044097801208496094	0.89097900390625	0.026384300231933593	-0.03771260070800781	0.8810800170898437	-0.001794909954071045	-0.029434600830078126	0.8754349975585938	-0.0397947998046875	-0.019011499404907227	0.8982210083007812	0.0492041015625	-0.02272800064086914	0.8860349731445313	0.027398899078369142	-0.015547100067138673	0.8825120239257812	0.00020613999664783402	-0.007823480129241943	0.8821339721679687	-0.03473160171508789	-7.073300331830901e-05	0.9037059936523437	0.030646900177001953	0.013445599555969238	0.8726480102539063	0.013836999893188477	0.014285400390625	0.8853909912109375	-0.002229779958724975	0.014416000366210938	0.8961669921875	-0.02783650016784668	0.015434499740600585	0.9136190185546875	-0.08167359924316406	-0.0009461960196495051	0.9727540283203125
